<svg t="1561353743355" class="icon" viewBox="0 0 1024 1024" version="1.1" xmlns="http://www.w3.org/2000/svg" p-id="21909" width="200" height="200"><path d="M555.885714 482.742857h182.857143a36.571429 36.571429 0 1 1 0 73.142857H555.885714v182.857143a36.571429 36.571429 0 1 1-73.142857 0V555.885714H299.885714a36.571429 36.571429 0 1 1 0-73.142857H482.742857V299.885714a36.571429 36.571429 0 1 1 73.142857 0V482.742857z m-43.885714 541.257143C229.229714 1024 0 794.770286 0 512S229.229714 0 512 0s512 229.229714 512 512-229.229714 512-512 512z m0-73.142857c242.366171 0 438.857143-196.490971 438.857143-438.857143S754.366171 73.142857 512 73.142857 73.142857 269.633829 73.142857 512s196.490971 438.857143 438.857143 438.857143z" fill="#FF0000" p-id="21910"></path></svg>