<svg t="1561354241901" class="icon" viewBox="0 0 1024 1024" version="1.1" xmlns="http://www.w3.org/2000/svg" p-id="23708" width="15" height="15"><path d="M512 206.4796294C342.94539493 206.4796294 206.4796294 342.94539493 206.4796294 512s136.46576553 305.5203706 305.5203706 305.5203706 305.5203706-136.46576553 305.5203706-305.5203706S681.05460507 206.4796294 512 206.4796294m128.31855565 433.83892625c-8.14720987 8.14720987-22.40482718 8.14720987-30.55203706 0L512 542.55203706 414.23348141 640.31855565c-8.14720987 8.14720987-22.40482718 8.14720987-30.55203706 0-8.14720987-8.14720987-8.14720987-22.40482718 0-30.55203706L481.44796294 512 383.68144435 414.23348141c-8.14720987-8.14720987-8.14720987-22.40482718 0-30.55203706 8.14720987-8.14720987 22.40482718-8.14720987 30.55203706 0L512 481.44796294l97.76651859-97.76651859c8.14720987-8.14720987 22.40482718-8.14720987 30.55203706 0 8.14720987 8.14720987 8.14720987 22.40482718 0 30.55203706L542.55203706 512l97.76651859 97.76651859c10.18401235 8.14720987 10.18401235 22.40482718 0 30.55203706m0 0z" fill="#cdcdcd" p-id="23709"></path></svg>