<svg t="1561353551860" class="icon" viewBox="0 0 1024 1024" version="1.1" xmlns="http://www.w3.org/2000/svg" p-id="21127" width="200" height="200"><path d="M810.1888 356.693333L667.306667 213.8112 259.413333 621.704533V764.586667h142.882134l407.893333-407.893334z m48.264533-48.264533L941.602133 225.28 798.72 82.397867 715.5712 165.546667l142.882133 142.882133zM822.852267 10.001067l191.146666 191.146666a34.133333 34.133333 0 0 1 0 48.264534l-573.44 573.44a34.133333 34.133333 0 0 1-24.132266 10.001066H225.28a34.133333 34.133333 0 0 1-34.133333-34.133333v-191.146667a34.133333 34.133333 0 0 1 10.001066-24.132266l573.44-573.44a34.133333 34.133333 0 0 1 48.264534 0zM907.946667 559.786667a34.133333 34.133333 0 0 1 68.266666 0v293.410133A170.632533 170.632533 0 0 1 805.649067 1024H170.564267A170.496 170.496 0 0 1 0 853.435733V218.350933A170.666667 170.666667 0 0 1 170.8032 47.786667H464.213333a34.133333 34.133333 0 0 1 0 68.266666H170.8032A102.4 102.4 0 0 0 68.266667 218.350933v635.0848A102.229333 102.229333 0 0 0 170.564267 955.733333h635.0848a102.365867 102.365867 0 0 0 102.2976-102.536533V559.786667z" p-id="21128" fill="#cdcdcd"></path></svg>