<svg t="1561702978854" class="icon" viewBox="0 0 1024 1024" version="1.1" xmlns="http://www.w3.org/2000/svg" p-id="5423" width="20" height="20"><path d="M876.8 823.4c4.3 0 4.4-6.8 0-6.8-4.4 0.1-4.4 6.8 0 6.8z" fill="#ECD195" p-id="5424"></path><path d="M112.7 512a399.3 418.9 0 1 0 798.6 0 399.3 418.9 0 1 0-798.6 0Z" fill="#F7C9BC" p-id="5425"></path><path d="M203.9 525.7c15.6 20.4 123.4 55.4 185.3 83.3 66.7 30 128.7 73.7 200.6 87.4 58.4-88.6 125.1-171.8 198.8-248 7.8-8 16.3-19.6 7.6-29.3-1.6-1.8-3.6-3.2-5.7-4.3-34.9-17.9-71.4-32.9-108.8-44.6-42.6-13.4-86.4-22.6-128.3-37.9-49.4-18.1-95.8-44.7-146.9-57.3-69.2 83.5-204 245.2-202.6 250.7z" fill="#F46562" p-id="5426"></path><path d="M201.5 528.1c4 5.1 10 8.6 15.5 11.8 8.7 5 17.8 9.3 26.9 13.4 24.2 10.8 48.9 20.3 73.6 30 25.3 9.9 50.7 19.7 75.4 31.1 30.8 14.2 60.3 30.9 90.5 46.1 33.5 16.9 68.3 31.9 105.3 39.1 1.6 0.3 2.9-0.2 3.8-1.6 56.6-85.8 120.9-166.5 191.9-240.7 7.2-7.5 16.6-15.5 18.4-26.4 1.7-10.8-6.4-17-15-21.3-22.8-11.5-46.2-21.7-70.1-30.7-49.4-18.5-101.1-28.8-151-45.6-54.1-18.2-103.9-47.8-159.5-61.7-1.1-0.3-2.5-0.1-3.3 0.9-33.4 40.5-67 80.9-100.3 121.4-29.3 35.5-58.7 71-86.9 107.4-4.1 5.4-8.3 10.7-12.1 16.3-1.7 2.5-4.5 5.7-4 9 0.7 4.3 7.2 2.5 6.5-1.8 0.3 1.9-0.4 2 0.8 0.1 0.9-1.4 1.8-2.8 2.8-4.2 3.3-4.7 6.8-9.3 10.3-13.9 11.7-15.2 23.7-30 35.7-44.9 33-40.8 66.4-81.2 99.9-121.6 17.4-21 34.8-42 52.1-63l-3.3 0.9c47.7 12 91.1 35.6 136.7 53.4 47.3 18.5 97.4 28.4 145.6 44.1 24.3 7.9 48.2 17.2 71.4 27.7 5.4 2.4 10.7 5 16.1 7.6 5.6 2.7 12.8 5.1 17.4 9.4 10.4 9.7-3.7 22.6-10.4 29.5-34 35.4-66.5 72.2-97.3 110.4-34.9 43.2-67.7 88-98.2 134.3 1.3-0.5 2.5-1 3.8-1.6-66.3-12.9-123.4-50.4-183.3-79.4-48.9-23.6-100.6-40.6-150.4-62.1-10.9-4.7-21.7-9.5-32.2-15.2-6.5-3.5-13.8-7.3-18.5-13.2-2.5-3.2-7.3 1.6-4.6 5z" fill="#F46562" p-id="5427"></path><path d="M641.1 440c4.3 0 4.4-6.8 0-6.8s-4.4 6.8 0 6.8z" fill="#E53923" p-id="5428"></path><path d="M229.1 488.6c9.6 9.7 15.6 22 21.3 34.2 6.7 14.3 13.5 28.6 20.2 42.9 2.5 5.2 10.2 0.7 7.8-4.5-7-14.8-13.9-29.6-20.9-44.4-5.9-12.4-12.3-24.6-22-34.5-4.1-4.2-10.4 2.2-6.4 6.3zM252 464c6.5 7.2 11.9 15.4 16 24.3 4.2 9.3 5.7 19.1 8.6 28.8 2.7 9.4 8.2 16.9 13.2 25.1 5.6 9.1 6.5 19.5 10.9 29.1 2.4 5.2 10.2 0.7 7.8-4.5-2.3-5-3.1-10.5-4.7-15.7-1.4-4.8-3.6-9.2-6.2-13.4-5.7-9.3-11-17.3-13.6-28-4.7-19.6-11.8-36.8-25.5-52-4.1-4.3-10.4 2.1-6.5 6.3zM279.2 423.5l18.9 80.7c3 13 5.9 26 9.2 39 1.5 5.8 3.3 11.6 5.6 17.1 2.5 5.9 5.5 11.6 5.9 18.1 0.3 5.8 9.3 5.8 9 0-0.6-12-7.7-22.7-10.8-34.1-3.7-13.4-6.5-27-9.7-40.5-6.4-27.5-12.9-55.1-19.3-82.6-1.4-5.7-10.1-3.3-8.8 2.3zM305.7 391.9c-0.7 17.5 7.8 34 12.5 50.5 4.7 16.6 8.1 33.4 11.5 50.3 3.4 16.8 6.8 33.7 11.5 50.2 2.4 8.3 5.2 16.3 8.3 24.3 3.4 8.8 6.7 17.5 5.5 27-0.7 5.7 8.3 5.7 9 0 1.1-8.7-1.1-17-4.1-25.1-3.1-8.4-6.3-16.6-8.9-25.1-5-16.5-8.5-33.3-11.8-50.1-3.4-16.9-6.7-33.8-11.2-50.4-2.3-8.3-5-16.4-7.8-24.5-3.1-8.8-5.8-17.7-5.4-27.1 0.2-5.8-8.8-5.8-9.1 0zM330.5 362.2c-0.8 34.3 21 63.7 22.7 97.5 0.5 8.9 0.2 17.9 2.2 26.6 2 8.7 6.6 16.3 10.4 24.3 7.8 16.6 12.4 34.4 14.4 52.6 1.9 17.4 2.8 35.9 13.8 50.3 3.5 4.6 11.3 0.1 7.8-4.5-9.8-13-10.8-29.4-12.5-45-1.8-17-5.4-33.6-12-49.5-3.3-7.9-7.7-15.4-10.9-23.3-3.5-8.6-3.7-17.7-4-26.8-0.5-16.8-4.7-32.3-10.3-48.1-6.2-17.5-13.1-35.1-12.6-54 0.1-5.9-8.9-5.9-9-0.1zM349.9 337.1C348.3 379.6 379.5 413 388 453c4.8 22.7 1.5 46.3 11.6 67.9 9.1 19.3 24.5 34.8 30.6 55.6 6.3 21.5 6.9 44.8 21.5 62.9 1.5-2.5 2.9-5 4.4-7.5-1.4-0.5-2.7-1.1-4.1-1.6-5.4-2.1-7.7 6.6-2.4 8.7 1.4 0.5 2.7 1.1 4.1 1.6 4.7 1.8 6.8-4.5 4.4-7.5-12.7-15.7-13.4-37.2-18.4-56-5.3-20.1-18-35.3-28.2-52.9-5.8-9.9-9.2-20.3-10.5-31.7-1.4-11.7-1.4-23.5-3.1-35.1-3-19.9-11.9-38.2-20.5-56.2-9.6-20.2-19.4-41.1-18.5-64 0.2-5.8-8.8-5.8-9-0.1z" fill="#F7C9BC" p-id="5429"></path><path d="M423.9 282.2c3.3 19.2 6.5 38.3 9.8 57.5 3.1 18.4 6 36.9 11 54.8 9 32.4 26.1 61.7 37.6 93.1 6.4 17.5 10.8 35.6 10.5 54.3-0.1 4.3 6.7 4.3 6.8 0 0.4-33.1-13-63.5-26.4-93-7-15.5-14.1-31.1-19.4-47.3-5.8-17.9-9-36.5-12.2-55-3.7-22.1-7.5-44.1-11.2-66.2-0.7-4.3-7.2-2.4-6.5 1.8z" fill="#D12518" p-id="5430"></path><path d="M383 297.1c-2.4 22.6 7.2 43.5 14.1 64.4 3.7 11.1 5.2 22.3 7.5 33.7 2.2 10.8 7.6 19.4 14.5 27.9 7.1 8.8 13.6 17.5 18.1 27.9 4.4 10.2 7.2 21.1 9.1 32.1 4.2 23.6 4.4 47.8 9 71.3 2.6 13.4 7.6 25.8 12.2 38.6 5.1 14.1 6.9 28.1 2.7 42.7-1.2 4.2 5.3 6 6.5 1.8 3.3-11.5 3.6-23.4 0.8-35-2.9-11.9-8.4-22.9-11.9-34.6-7.2-24-7.6-49.3-10.8-74-2.8-21.1-7.6-42.7-19.4-60.8-5.9-9-14-16.6-19.3-26-6.1-10.7-5.9-23.4-8.7-35.1-6.2-24.9-20.4-48.6-17.5-75 0.3-4.2-6.4-4.2-6.9 0.1zM426.6 283.6c4.3 26 8.8 52 13.3 77.9 4.3 24.5 6.8 50.3 17.2 73.1 4.9 10.8 11.1 21 16.1 31.7 5 10.9 9.2 22.2 12.6 33.7 7 24 9 48.1 10.3 72.9 0.7 13.3 2.2 26.5 6.1 39.3 3.8 12.6 9.4 25.9 4.3 39-2.1 5.4 6.6 7.7 8.7 2.4 4.2-10.7 2.2-22.1-0.9-32.9-3.6-12.2-7.1-23.9-8.3-36.6-1.2-12.4-1.2-24.8-2.3-37.2-1-11.8-2.9-23.6-5.5-35.2-5.6-24.2-15-46.8-26.7-68.6-6-11.2-10.8-22.4-13.8-34.8-3-12.4-4.9-25-7.1-37.6-5.2-29.8-10.4-59.7-15.4-89.6-0.9-5.6-9.6-3.2-8.6 2.5zM460 295.7c3.4 13.2 6.8 26.3 10.1 39.5 3.3 12.9 6.2 26.1 10.5 38.7 4 11.8 10.8 22 15.7 33.4 5 11.5 6.9 24.1 8.1 36.5 2.2 23.7 2.4 47.1 11.3 69.5 8.5 21.6 22.3 42.5 22.9 66.3 0.6 27.6-13.6 53.4-10.4 81.2 0.6 5.7 9.7 5.8 9 0-2.8-24.8 8.2-48.1 10.1-72.5 1.9-24-8.4-44.9-18.1-66.1-5-11-9.3-22.2-11.6-34.1-2.3-12.3-2.8-24.8-3.7-37.3-0.9-12.2-2.1-24.6-5.6-36.4-3.4-11.7-9.9-21.8-15-32.7-6.4-13.6-9.4-28.8-13.1-43.2-3.9-15-7.7-30.1-11.6-45.1-1.4-5.7-10.1-3.3-8.6 2.3zM499.8 311.9c1.9 48.2 24.1 92.2 30.9 139.5 3.4 23.4 1.5 47.9 10.2 70.3 4.3 11.1 11.4 20.7 16.8 31.3 5.5 10.8 9.2 22.6 10.7 34.6 1.7 13.6-0.4 27.2 0.9 40.7 1.3 13.7 8.6 26.4 7.9 40.3-0.3 5.8 8.7 5.8 9 0 0.6-11.9-4.5-22.7-6.9-34.1-2.7-12.5-0.6-25.4-1.2-38.1-0.5-11.5-2.7-23.1-6.6-33.9-4-11.2-10.1-21-16-31.3-12.6-21.8-12.4-45.9-14.7-70.3-2.3-23.8-8.7-46.7-15.4-69.5-7.6-26-15.5-52.1-16.6-79.4-0.2-5.9-9.2-5.9-9-0.1zM540.5 330.3c6.3 38.5 21.4 74.3 43.1 106.6 5.8 8.6 11.2 17.2 15.9 26.5 3.9 7.7 8.3 14.8 14.4 21 11.5 11.6 26.2 19.5 37.3 31.5 6.9 7.5 10.2 16.9 16.2 25 5.7 7.8 14.6 13 18.9 21.8 2.5 5.2 10.3 0.6 7.8-4.5-3.7-7.6-10.4-12.6-16.1-18.5-6.4-6.7-9.4-15.5-14.6-22.9-9.3-13.2-23.2-21.6-35.4-31.8-6.5-5.3-12.4-11.2-16.7-18.5-4.8-8.2-8.5-16.8-13.7-24.8-10.7-16.6-21.6-32.8-29.7-50.9-9-20-15.1-41.2-18.6-62.7-1.1-5.9-9.7-3.5-8.8 2.2zM578 341.3c8.6 29.9 24.2 57.3 45.6 79.9 5.3 5.7 11 11.1 15.6 17.4 4.6 6.4 7 13.5 10 20.6 2.8 6.8 6.5 12.6 12.2 17.4 5.7 4.8 12.2 8.6 17.8 13.5 12.5 10.9 22 25.9 21.3 43-0.2 5.8 8.8 5.8 9 0 0.6-14.2-5-27.5-13.7-38.5-4.6-5.9-10-10.9-16-15.4-6.1-4.6-13.2-8.5-17.8-14.8-4.5-6.1-6.3-13.7-9.4-20.5-3.1-6.8-7.6-12.8-12.6-18.3-10.8-12.1-22-23.3-30.8-37-9.9-15.4-17.5-32.1-22.6-49.6-1.5-5.6-10.2-3.3-8.6 2.3zM635.6 359.4c4.8 29.6 28.5 49.7 46.8 71.4 4.9 5.8 9.4 11.8 13.1 18.4 3.7 6.7 6.3 13.8 9.1 20.9 2.6 6.7 5.6 13.1 9.5 19.1 4 6.1 8.3 11.8 9.4 19.1 0.9 5.7 9.5 3.3 8.7-2.4-1-6.7-4.4-12.4-8.1-17.9-4.2-6.2-7.7-12.5-10.5-19.4-5.6-14-11.2-26.8-20.5-38.8-17.9-22.9-43.9-42.3-48.8-72.7-1-5.8-9.6-3.3-8.7 2.3zM687 374.6c18.6 32.7 58.4 58 59.7 98.7 0.2 5.8 9.2 5.8 9 0-1.4-43.4-41.2-68.6-60.9-103.3-2.9-5-10.7-0.4-7.8 4.6z" fill="#F7C9BC" p-id="5431"></path><path d="M227.9 493.6c10.9 13 19.7 27.5 26.1 43.2 1.6 4 8.2 2.2 6.5-1.8-6.9-16.8-16.2-32.3-27.8-46.2-2.8-3.3-7.6 1.5-4.8 4.8zM252.6 470c7.2 9.3 12.4 19.8 15.6 31.1 1.2 4.2 7.7 2.4 6.5-1.8-3.5-12.5-9.4-23.8-17.3-34.1-2.7-3.5-7.5 1.4-4.8 4.8zM277.8 430.6c11.6 35.5 7.3 75.2 26.1 108.4 2.1 3.8 8 0.4 5.8-3.4-18.5-32.6-14-72-25.4-106.8-1.3-4.1-7.8-2.3-6.5 1.8zM306.3 391.5c-3.2 26.1 10.3 49.7 16 74.4 5.6 24.2 4.5 50 17 72.2 2.1 3.8 8 0.4 5.8-3.4-12.1-21.6-10.9-47.1-16.3-70.6-5.6-24.1-18.9-47.2-15.8-72.6 0.5-4.3-6.2-4.3-6.7 0zM330.3 365.9c10.1 62.6 23 124.7 38.7 186.1 1.1 4.2 7.6 2.4 6.5-1.8-15.7-61.4-28.6-123.5-38.7-186.1-0.7-4.2-7.2-2.4-6.5 1.8zM345 341.2c-0.8 30.3 16.7 56.2 29.6 82.3 7.1 14.3 12.4 28.9 14.2 44.9 1.8 16.2 2.2 32.7 10.2 47.3 2.1 3.8 7.9 0.4 5.8-3.4-8.2-15-7.6-32.5-9.9-48.9-2-14.3-6.9-27.5-13.2-40.4-12.6-26-30.9-51.5-30.1-81.6 0.3-4.5-6.5-4.5-6.6-0.2zM377.9 301.9c3.5 29 7.1 58.3 17.1 85.9 5 13.9 11.7 26.8 19.9 39 8.3 12.3 17.6 24 25.3 36.7 9 14.8 15.7 31.3 15.1 48.9-0.2 4.3 6.6 4.3 6.8 0 1.1-30-17.1-54.8-33.7-78-8.8-12.3-17.1-24.8-23.1-38.7-5.9-13.6-9.9-28-12.9-42.5-3.5-17-5.7-34.1-7.8-51.3-0.5-4.2-7.2-4.3-6.7 0zM595.6 699.2c41.7-73.4 98-136.7 152.8-200.3 16.5-19.2 33.1-38.3 49.6-57.5 2.8-3.3-1.9-8.1-4.8-4.8-29 33.6-58.2 67.1-87 100.9-27.2 31.8-53.8 64.1-78 98.2-13.8 19.4-26.7 39.4-38.4 60-2.1 3.9 3.7 7.3 5.8 3.5z" fill="#D12518" p-id="5432"></path><path d="M595 691.3c41.7-73.4 98-136.7 152.8-200.3 16.5-19.2 33.1-38.3 49.6-57.5 2.8-3.3-1.9-8.1-4.8-4.8-29 33.6-58.2 67.1-87 100.9-27.2 31.8-53.8 64.1-78 98.2-13.8 19.4-26.7 39.4-38.4 60-2.1 3.9 3.7 7.3 5.8 3.5zM457.9 292c0.4 30.1 12 58 23 85.6 5.6 14.1 11.1 28.2 14.9 42.9 3.8 14.9 5 30.2 6.8 45.5 1.9 16.5 5 32.8 13.4 47.3 2.2 3.8 8 0.4 5.8-3.4-15-25.9-11.8-57.2-18.1-85.5-6.4-28.8-20-55.3-29.4-83.1-5.4-16-9.3-32.3-9.5-49.3-0.2-4.3-6.9-4.3-6.9 0zM497.3 311.9c4.2 61.4 28.4 119.1 36.2 179.9 0.5 4.3 7.3 4.3 6.8 0-7.8-60.8-32-118.5-36.2-179.9-0.3-4.3-7.1-4.3-6.8 0z" fill="#D12518" p-id="5433"></path><path d="M564.2 406.6c8.8 31.7 25.8 60.9 49.1 84 22.5 22.3 52.1 38.2 68.1 66.5 2.1 3.8 8 0.4 5.8-3.4-15.5-27.4-43.3-43.4-65.6-64.4-24.4-22.9-41.9-52.3-50.9-84.5-1.2-4.2-7.7-2.4-6.5 1.8zM595.6 398.6c7.1 10.4 18.6 16.6 25.7 26.8 3.8 5.5 6.4 11.8 9.5 17.7 3.3 6.3 7 12.3 11 18.1 7.4 10.6 16.1 19.9 25.3 28.9s18.4 18.1 23.5 30.2c1.7 4 7.5 0.5 5.8-3.4-4.8-11.3-13.1-20.3-21.7-28.8-9.7-9.6-19.2-19.1-27.1-30.3-3.9-5.5-7.4-11.3-10.6-17.3-3.1-5.9-5.7-12.2-9.4-17.7-7.1-10.7-19-17-26.2-27.5-2.4-3.7-8.2-0.3-5.8 3.3zM640.8 387.2c11.9 19.3 25.7 37.4 41.1 54 3 3.2 7.7-1.6 4.8-4.8-15.1-16.2-28.4-33.8-40-52.7-2.3-3.6-8.2-0.2-5.9 3.5zM700.3 393.9c11.4 21 25.3 40.5 41.4 58.2 2.9 3.2 7.7-1.6 4.8-4.8-15.8-17.2-29.3-36.3-40.4-56.8-2.1-3.9-7.9-0.5-5.8 3.4z" fill="#D12518" p-id="5434"></path><path d="M221 540.5c38.9 26.5 85.7 39.2 128.9 56.8 46.4 19 91.7 40.5 135.8 64.4 22.4 12.1 45.2 24.4 70.9 27.3 4.3 0.5 4.3-6.3 0-6.8-23.5-2.7-44.7-14-65.2-25.1-21.1-11.4-42.4-22.4-64.1-32.8-43.3-20.8-87.7-38.5-132.5-55.5-24.5-9.3-48.7-19.4-70.4-34.2-3.6-2.3-7 3.5-3.4 5.9z" fill="#D12518" p-id="5435"></path></svg>