<svg t="1561703013027" class="icon" viewBox="0 0 1024 1024" version="1.1" xmlns="http://www.w3.org/2000/svg" p-id="6271" width="20" height="20"><path d="M112.2 515.9c30.3 17.9 72 23.2 132.2 29.2 71.8 7.2 161.1 16.1 247.2 65.9 97.8 56.7 187.2 86.7 258.6 86.7 58.3 0 104.1-18.9 136-56.3 30.8-36.1 47.1-89.4 47.1-154.1 0-206.2-197.4-374-440.1-374-126.4 0-232 24-305.5 69.3-40.9 25.3-72.2 57.2-93.1 95-20.8 37.7-31.3 81.5-31.3 130.3-0.1 54.6 15 87.9 48.9 108z m85.9-316.2c70.3-43.4 172.4-66.4 295-66.4 231.6 0 420.1 158.8 420.1 354 0 59.9-14.6 108.6-42.3 141.1-27.9 32.7-68.5 49.3-120.8 49.3-67.9 0-153.8-29-248.6-84-89.8-52-181.5-61.2-255.2-68.5-113.1-11.3-163.1-20.3-163.1-117.3 0-91.1 38.7-161.2 114.9-208.2z" fill="#B92A3A" p-id="6272"></path><path d="M911.1 619.6l-14.4 23.1c-4.3 7-9 13.4-14 19.2-30.2 35.4-75.5 54.1-131.1 54.1-71.2 0-157.2-28.9-255.4-85.8-87.2-50.6-173.5-59.2-249.7-66.8-62.9-6.2-117.3-11.7-147.5-42.4l-12.7-12.8c-7.9-8-21.6-2.4-21.6 8.8v30.5c0 55 14.1 87.8 45.8 106.3 28 16.3 67 18.9 116.3 22.2 69.8 4.6 156.6 10.4 248.2 61.2 99.9 55.4 186.8 88.4 258.5 98.1 14.6 2 28.7 3 41.8 3 54.7 0 96.6-17 124.7-50.7 24.3-29.1 31.5-57.8 33.6-133.8l0.8-27.2c0.4-12.8-16.5-17.9-23.3-7z m-26.4 155.2c-30.3 36.3-80.2 49.9-148.5 40.7-69.2-9.4-153.8-41.6-251.5-95.8-95.5-53-184.8-58.9-256.6-63.6-95.5-6.3-143.5-9.5-143.5-108.6 0-4.7 5.4-7.2 9-4.3 35.9 28.7 91 34.2 150.8 40.2 74.2 7.4 158.2 15.8 241.7 64.2C587.5 706.2 676.8 736 751.6 736c61.6 0 112.2-21.1 146.3-61.1 1.7-2 3.4-4.1 5.1-6.3 3.3-4.3 10.2-1.8 9.9 3.6-2.5 57.5-9.5 80.3-28.2 102.6z" fill="#B92A3A" p-id="6273"></path><path d="M903 668.7l-5.1 6.3c-34.1 40-84.7 61.1-146.3 61.1-74.8 0-164.1-29.8-265.4-88.5-83.5-48.4-167.6-56.8-241.7-64.2-59.8-6-114.8-11.5-150.8-40.2-3.6-2.9-9-0.3-9 4.3 0 99.1 47.9 102.3 143.5 108.6 71.8 4.8 161 10.7 256.6 63.6 97.7 54.2 182.3 86.4 251.5 95.8 68.3 9.3 118.2-4.4 148.5-40.7 18.7-22.3 25.7-45.2 28.3-102.6 0.1-5.3-6.7-7.8-10.1-3.5z" fill="#F75146" p-id="6274"></path><path d="M246.3 525.2c73.7 7.4 165.4 16.5 255.2 68.5 94.8 54.9 180.7 84 248.6 84 52.2 0 92.8-16.6 120.8-49.3 27.7-32.4 42.3-81.2 42.3-141.1 0-195.2-188.4-354-420.1-354-122.7 0-224.7 22.9-295 66.4-76.2 47-114.9 117.1-114.9 208.2 0 97 50 106 163.1 117.3z m254.1-355.5c1.6-3.7 5.4-6.1 9.4-6 35.1 1.1 73.8 9.8 112.1 26.6 6.5 2.9 12.8 5.9 19 9 4.7 2.4 6.7 8.1 4.6 12.9-2.3 5.3-8.6 7.5-13.7 4.9-5.8-3-11.8-5.8-17.9-8.5-35.1-15.4-71.2-23.9-104.7-24.9-7-0.2-11.6-7.5-8.8-14z m-125 65.6c64.1 0 116.3 42.3 116.3 94.2 0 52-52.2 94.2-116.3 94.2s-116.3-42.3-116.3-94.2c0-52 52.2-94.2 116.3-94.2z" fill="#F75146" p-id="6275"></path><path d="M375.4 423.7c64.1 0 116.3-42.3 116.3-94.2 0-51.9-52.2-94.2-116.3-94.2s-116.3 42.3-116.3 94.2c0 52 52.2 94.2 116.3 94.2z m-69.6-145.3c18.4-14.9 43.2-23.2 69.6-23.2 26.5 0 51.2 8.2 69.6 23.2 17.2 13.9 26.7 32.1 26.7 51.1s-9.5 37.1-26.7 51.1c-18.4 14.9-43.2 23.2-69.6 23.2-26.4 0-51.2-8.2-69.6-23.2-17.2-13.9-26.7-32.1-26.7-51.1s9.5-37.1 26.7-51.1z" fill="#B92A3A" p-id="6276"></path><path d="M305.8 380.6c18.4 14.9 43.2 23.2 69.6 23.2 26.5 0 51.2-8.2 69.6-23.2 17.2-13.9 26.7-32.1 26.7-51.1s-9.5-37.1-26.7-51.1c-18.4-14.9-43.2-23.2-69.6-23.2-26.4 0-51.2 8.2-69.6 23.2-17.2 13.9-26.7 32.1-26.7 51.1s9.5 37.1 26.7 51.1z" fill="#F75146" p-id="6277"></path><path d="M509.2 183.7c33.5 1 69.6 9.5 104.7 24.9 6.1 2.7 12.1 5.5 17.9 8.5 5.1 2.6 11.4 0.4 13.7-4.9 2.1-4.8 0.1-10.5-4.6-12.9-6.2-3.2-12.5-6.2-19-9-38.3-16.8-77-25.5-112.1-26.6-4.1-0.1-7.8 2.3-9.4 6-2.8 6.5 1.8 13.8 8.8 14z" fill="#FFFFFF" p-id="6278"></path></svg>