<svg t="1561205891947" class="icon" viewBox="0 0 1024 1024" version="1.1" xmlns="http://www.w3.org/2000/svg" p-id="16628" width="200" height="200"><path d="M938.7 461.9c-34.7-50.8-99-68.7-146-81.8-14.9-4.2-29.1-8.1-38.8-12.2-46.4-19.6-74.7-44.3-102.1-68.2-15.3-13.4-29.8-26-46.9-37.6-29.5-19.9-66.6-37.1-104.7-48.6-50-15.1-101.5-20.8-153-16.9-71 5-135.7 29.2-186.9 70.1-48.9 39.1-81.5 90.9-91.7 145.9-1.5 8-2.5 15.9-3 23.9-1 10.8-9.7 108.6 12.8 175.9 13.8 41.5 36.5 63.1 50.1 76.1 1.5 1.4 2.8 2.7 4.1 4 19.5 19.2 41.2 35.5 66.6 49.9 34.4 19.5 76.3 35.9 124.4 48.5 81.7 21.5 155.6 32 225.8 32.2h1.4c65.7 0 130.8-9.2 199-28.1 160.7-44.6 196.8-117.1 204.9-146.2 7.3-26.5 5-90 4.3-104.8 4.4-28-2.4-56-20.3-82.1zM350.6 241h0.2c9.6-0.7 18.9-1.1 28-1.1 104.1 0 178.2 44.1 199.7 58.6 14.7 9.9 28.2 21.7 42.4 34.1 28.7 25.1 61.3 53.5 114.6 76 12.5 5.3 28 9.6 44.4 14.2 42.3 11.8 94.9 26.5 120.3 63.6 11.7 17.2 16.1 34.1 13.2 51.5-0.1 0.5-0.2 1.1-0.3 1.7-0.7 3.8-1.8 7.6-3.3 11.5-8.8 23.6-30.5 47.8-62.7 70-30.1 20.7-67.7 38.3-106.1 49.6-39.8 11.8-249.5 65.5-473.2-32.2-105-45.9-160.9-116.9-156.3-197 0.1-0.8 0.1-1.3 0.1-1.4 0.1-0.7 0.1-1.3 0.1-2 0.5-5.8 1.2-11.7 2.3-17.6 17.8-95.7 117.3-171.2 236.6-179.5z m519.2 449.5c-31.2 25.1-75.8 45.9-132.7 61.6-63.3 17.6-124 26.4-186.7 26.4-67.4 0-137-10.2-214.6-30.6-100.6-26.5-145.3-62.1-170.2-86.6-1.4-1.4-3-2.9-4.7-4.5-11.9-11.3-28.2-26.9-38.6-58-1.1-3.4-2.2-6.9-3.1-10.5 31.1 36.2 74.5 66.6 129.6 90.7 93 40.6 194.4 61.2 301.4 61.2h2.1c100.9-0.3 175-19 202.2-27 52.1-15.4 115.1-45.3 157.6-86.9-0.5 4.4-1.1 8.1-1.9 10.9-2.7 10-11.7 30.2-40.4 53.3z" p-id="16629" fill="#8a8a8a"></path><path d="M792 609.7c1.9 0.1 3.8 0.2 5.6 0.2 35.7 0 66.2-25.2 69.2-58.3 1.5-16.4-3.9-32.4-15.1-45.2-11.9-13.6-29.6-22.1-48.5-23.5-38.1-2.8-71.6 23.3-74.8 58.1-1.5 16.4 3.9 32.4 15.1 45.2 11.9 13.5 29.6 22.1 48.5 23.5z m-33-66.1c1.6-17.8 18.6-31.3 38.5-31.3 1.1 0 2.2 0 3.3 0.1 10.8 0.8 20.8 5.6 27.4 13.1 5.9 6.7 8.7 15 7.9 23.4-1.7 18.7-20.5 32.7-41.8 31.1-10.8-0.8-20.8-5.6-27.4-13.1-5.8-6.6-8.6-14.9-7.9-23.3zM490.4 496.5c85.7 21.4 168.6 34.2 193.5 29.9 24.9-4.4 46.5-27.7 8-48.9s-118.1-41.2-157.2-101.9c-39.1-60.7-132.7-88.5-175.4-94.7 0 0-103.5-10.1-129.2 49.8S404.7 475 490.4 496.5z" p-id="16630" fill="#8a8a8a"></path><path d="M224.9 556.4c82.2 62.2 218.8 93.6 366.7 74 147.8-19.6 118-80 65.2-82.5s-193.7-19.2-267.4-50.4-115.6-72.9-164.5-91.1c0 0-28-12.2-46 4.7s-36.2 83.1 46 145.3z" p-id="16631" fill="#8a8a8a"></path></svg>