<svg t="1561205936328" class="icon" viewBox="0 0 1024 1024" version="1.1" xmlns="http://www.w3.org/2000/svg" p-id="17829" width="200" height="200"><path d="M420.99 338.036c-10.586 0-19.168-8.573-19.168-19.168V224.56c0-56.888 46.293-103.18 103.19-103.18s103.19 46.293 103.19 103.18v89.59c0 10.595-8.583 19.168-19.168 19.168s-19.168-8.573-19.168-19.168v-89.59c0-35.754-29.09-64.843-64.853-64.843s-64.853 29.09-64.853 64.843v94.307c-0.001 10.595-8.584 19.169-19.17 19.169z" fill="#8a8a8a" p-id="17830"></path><path d="M337.465 383.13a19.108 19.108 0 0 1-13.553-5.616l-59.106-59.096c-40.237-40.228-40.237-105.707 0-145.935 40.228-40.246 105.707-40.246 145.935 0l24.41 24.41c7.488 7.488 7.488 19.618 0 27.105-7.488 7.488-19.618 7.488-27.105 0l-24.41-24.41c-25.29-25.271-66.434-25.271-91.724 0-25.29 25.29-25.29 66.434 0 91.724l59.106 59.096c7.488 7.488 7.488 19.618 0 27.105a19.103 19.103 0 0 1-13.553 5.617zM686.999 383.13a19.108 19.108 0 0 1-13.553-5.616c-7.488-7.488-7.488-19.618 0-27.105l59.106-59.096c25.29-25.29 25.29-66.434 0-91.724-24.503-24.485-67.211-24.485-91.715 0l-24.419 24.41c-7.488 7.488-19.618 7.488-27.105 0-7.488-7.488-7.488-19.618 0-27.105l24.419-24.41c19.487-19.487 45.403-30.231 72.967-30.231s53.471 10.745 72.958 30.231c40.237 40.228 40.237 105.707 0 145.935l-59.106 59.096a19.105 19.105 0 0 1-13.552 5.615z" fill="#8a8a8a" p-id="17831"></path><path d="M511.544 923.254a19.174 19.174 0 0 1-11.962-4.193l-46.901-37.457c-15.724-12.579-34.893-23.717-58.61-34.088-120.046-52.47-189.925-175.549-173.892-306.265 13.281-108.234 88.551-202.205 191.75-239.4a285.444 285.444 0 0 1 57.515-14.227c42.577-5.953 84.658-2.92 125.072 8.966 124.043 36.465 210.666 152.337 210.666 281.742 0 115.909-68.447 221.261-174.379 268.414-25.776 11.456-45.647 23.062-62.541 36.559l-44.758 35.754a19.155 19.155 0 0 1-11.96 4.195zM409.422 812.399c26.843 11.718 48.82 24.56 67.193 39.254l34.93 27.892 32.796-26.188c19.243-15.387 42.436-28.996 70.88-41.65 92.108-40.976 151.625-132.588 151.625-233.372 0-112.521-75.307-213.268-183.139-244.978-35.155-10.333-71.797-12.935-108.974-7.768-16.913 2.359-33.666 6.514-49.793 12.317-89.74 32.347-155.173 114-166.704 208.026-13.964 113.756 46.798 220.829 151.186 266.467z" fill="#8a8a8a" p-id="17832"></path><path d="M242.933 635.727c-7.226 0-14.152-4.099-17.39-11.1-4.465-9.603-0.3-20.984 9.303-25.458a638.505 638.505 0 0 1 62.382-25.028c10.062-3.519 20.919 1.928 24.335 11.943 3.426 10.015-1.928 20.909-11.943 24.335a598.172 598.172 0 0 0-58.619 23.53 19.045 19.045 0 0 1-8.068 1.778zM289.413 750.738c-6.627 0-13.066-3.426-16.613-9.584-5.298-9.172-2.162-20.891 7.01-26.188a447.192 447.192 0 0 1 114.786-46.517c10.183-2.583 20.675 3.65 23.259 13.908 2.583 10.277-3.65 20.685-13.918 23.268a409.343 409.343 0 0 0-104.958 42.549 19.097 19.097 0 0 1-9.566 2.564zM725.112 753.752c-3.341 0-6.72-0.861-9.799-2.696-63.449-37.831-136.285-57.824-210.619-57.824-10.586 0-19.168-8.573-19.168-19.168s8.583-19.168 19.168-19.168c81.241 0 160.863 21.864 230.255 63.215 9.088 5.429 12.065 17.203 6.645 26.282-3.585 6.027-9.949 9.359-16.482 9.359z" fill="#8a8a8a" p-id="17833"></path></svg>