<svg t="1561293679431" class="icon" viewBox="0 0 1024 1024" version="1.1" xmlns="http://www.w3.org/2000/svg" p-id="1199" width="200" height="200"><path d="M251.345455 954.181818l-39.563637-195.490909H121.018182c-44.218182 0-79.127273-34.909091-79.127273-79.127273V146.618182C41.890909 104.727273 76.8 69.818182 121.018182 69.818182h784.290909c44.218182 0 79.127273 34.909091 79.127273 79.127273v532.945454c0 44.218182-34.909091 79.127273-79.127273 79.127273H470.109091L251.345455 954.181818zM121.018182 114.036364c-18.618182 0-32.581818 13.963636-32.581818 32.581818v532.945454c0 18.618182 13.963636 32.581818 32.581818 32.581819h128l32.581818 153.6 172.218182-153.6h449.163636c18.618182 0 32.581818-13.963636 32.581818-32.581819V146.618182c0-18.618182-13.963636-32.581818-32.581818-32.581818H121.018182z" p-id="1200" fill="#8a8a8a"></path><path d="M809.890909 302.545455h-581.818182c-11.636364 0-23.272727-9.309091-23.272727-23.272728 0-11.636364 9.309091-23.272727 23.272727-23.272727h581.818182c11.636364 0 23.272727 9.309091 23.272727 23.272727s-9.309091 23.272727-23.272727 23.272728zM791.272727 470.109091H232.727273c-11.636364 0-23.272727-9.309091-23.272728-23.272727 0-11.636364 9.309091-23.272727 23.272728-23.272728h558.545454c11.636364 0 23.272727 9.309091 23.272728 23.272728s-9.309091 23.272727-23.272728 23.272727zM684.218182 598.109091H232.727273c-11.636364 0-23.272727-9.309091-23.272728-23.272727 0-11.636364 9.309091-23.272727 23.272728-23.272728h451.490909c11.636364 0 23.272727 9.309091 23.272727 23.272728s-9.309091 23.272727-23.272727 23.272727z" p-id="1201" fill="#8a8a8a"></path></svg>