<svg t="1561351884665" class="icon" viewBox="0 0 1024 1024" version="1.1" xmlns="http://www.w3.org/2000/svg" p-id="15528" width="200" height="200"><path d="M512 1024c-282.24 0-512-229.76-512-512s229.76-512 512-512 512 229.76 512 512-229.76 512-512 512zM512 64C264.96 64 64 264.96 64 512s200.96 448 448 448 448-200.96 448-448-200.96-448-448-448z m48 240C560 277.76 538.24 256 512 256s-48 21.76-48 48 21.76 48 48 48 48-21.76 48-48z m-7.68 424.32V423.68C552.32 401.92 533.76 384 512 384s-39.68 17.92-39.68 39.68v304c0 22.4 17.92 40.32 39.68 40.32 21.76 0 40.32-17.92 40.32-39.68z" fill="#bfbfbf" p-id="15529"></path></svg>