<svg t="1561446264458" class="icon" viewBox="0 0 1024 1024" version="1.1" xmlns="http://www.w3.org/2000/svg" p-id="3402" width="20" height="20"><path d="M512 95.203556c239.872 0 435.2 152.775111 435.2 340.679111C947.2 623.758222 751.872 776.533333 512 776.533333a155.306667 155.306667 0 0 0-55.552 11.776 866.986667 866.986667 0 0 0-179.2 111.900445c-4.864-144.384-25.6-190.236444-61.696-215.665778C128 620.373333 76.8 529.692444 76.8 436.138667 76.8 247.978667 272.128 95.459556 512 95.459556v-0.284445z m0-78.364445C230.4 16.839111 0 204.515556 0 436.138667c0 124.216889 65.792 235.861333 170.752 312.632889 25.6 18.858667 30.464 131.043556 30.464 216.462222-0.199111 12.288 4.380444 24.177778 12.714667 33.024 8.362667 8.846222 19.797333 13.937778 31.829333 14.136889 9.329778-0.369778 18.289778-3.754667 25.6-9.671111 64.256-50.858667 155.904-118.727111 211.2-140.231112a79.843556 79.843556 0 0 1 29.44-6.826666c281.6 0 512-187.875556 512-419.271111S793.6 17.123556 512 17.123556v-0.284445z m166.4 312.632889h-332.8c-21.219556 0-38.4 17.607111-38.4 39.310222 0 21.703111 17.180444 39.310222 38.4 39.310222h332.8c21.219556 0 38.4-17.607111 38.4-39.310222 0-21.703111-17.180444-39.310222-38.4-39.310222z m-51.2 183.466667h-230.4c-21.219556 0-38.4 17.578667-38.4 39.281777 0 21.731556 17.180444 39.310222 38.4 39.310223h230.4c21.219556 0 38.4-17.578667 38.4-39.310223 0-21.703111-17.180444-39.310222-38.4-39.310222z" fill="#8a8a8a" p-id="3403"></path></svg>