<svg t="1561446532991" class="icon" viewBox="0 0 1024 1024" version="1.1" xmlns="http://www.w3.org/2000/svg" p-id="3790" width="20" height="20"><path d="M768 646.981818h-195.490909c-9.309091 0-18.618182 9.309091-18.618182 18.618182s9.309091 18.618182 18.618182 18.618182h195.490909c9.309091 0 18.618182-9.309091 18.618182-18.618182s-9.309091-18.618182-18.618182-18.618182M181.527273 302.545455c0-107.054545 88.436364-190.836364 195.490909-190.836364s195.490909 83.781818 195.490909 190.836364c0 9.309091 0 23.272727-4.654546 32.581818 13.963636-4.654545 27.927273-9.309091 41.89091-9.309091v-23.272727c0-125.672727-107.054545-232.727273-232.727273-232.727273s-232.727273 102.4-232.727273 232.727273c0 83.781818 46.545455 153.6 111.709091 195.490909-125.672727 46.545455-218.763636 162.909091-228.072727 302.545454h37.236363c9.309091-134.981818 107.054545-251.345455 242.036364-279.272727 13.963636 4.654545 27.927273 9.309091 41.890909 9.309091 4.654545-13.963636 13.963636-23.272727 18.618182-37.236364-107.054545-4.654545-186.181818-88.436364-186.181818-190.836363m488.727272 614.4c-139.636364 0-256-111.709091-256-251.345455s111.709091-251.345455 256-251.345455 256 111.709091 256 251.345455-116.363636 251.345455-256 251.345455m0-539.927273c-162.909091 0-293.236364 130.327273-293.236363 288.581818s130.327273 288.581818 293.236363 288.581818 293.236364-130.327273 293.236364-288.581818-130.327273-288.581818-293.236364-288.581818" p-id="3791" fill="#8a8a8a"></path></svg>