<svg t="1561359673716" class="icon" viewBox="0 0 1024 1024" version="1.1" xmlns="http://www.w3.org/2000/svg" p-id="26178" width="20" height="20"><path d="M512 0C228.266667 0 0 228.266667 0 512s228.266667 512 512 512 512-228.266667 512-512S795.733333 0 512 0z" fill="" p-id="26179"></path><path d="M725.333333 725.333333c-14.933333 14.933333-36.266667 14.933333-51.2 0L512 563.2 349.866667 725.333333c-14.933333 14.933333-36.266667 14.933333-51.2 0s-14.933333-36.266667 0-51.2l162.133333-162.133333-162.133333-162.133333c-14.933333-14.933333-14.933333-36.266667 0-51.2s36.266667-14.933333 51.2 0l162.133333 162.133333 162.133333-162.133333c14.933333-14.933333 36.266667-14.933333 51.2 0s14.933333 36.266667 0 51.2L563.2 512l162.133333 162.133333c19.2 14.933333 19.2 40.533333 0 51.2z" fill="#FFFFFF" p-id="26180"></path></svg>