<svg t="1561187017892" class="icon" viewBox="0 0 1024 1024" version="1.1" xmlns="http://www.w3.org/2000/svg" p-id="12193" width="200" height="200"><path d="M511.412622 78.239945C274.270621 78.853929 81.830727 272.300756 82.44471 509.442758c0.626263 237.139955 194.072067 429.581895 431.213046 428.967912 237.132792-0.626263 429.569616-194.07309 428.956655-431.213046C942.001451 270.054599 748.554624 77.625962 511.412622 78.239945zM513.512447 883.07334c-206.635197 0.528026-375.190101-167.141718-375.730407-373.775892-0.528026-206.639291 167.141718-375.177821 373.775892-375.71915 206.639291-0.540306 375.177821 167.129438 375.71915 373.763612C887.818411 713.977108 720.148667 882.532011 513.512447 883.07334z" p-id="12194" fill="#bfbfbf"></path><path d="M744.822626 335.228971c-64.389496-53.508681-145.945977-82.873476-229.640144-82.651418-83.815941 0.221034-165.214832 30.002314-229.196029 83.8405l-6.777357 5.647627 0.26913 106.169041c0.405229 151.569044 90.50734 288.413735 229.554186 348.663958l7.489578 3.266393 7.735172-3.314489c138.688689-60.938907 228.042763-198.272739 227.637534-349.84383l-0.270153-106.166995L744.822626 335.228971zM517.440919 758.546186l-1.042749 0.490164-1.031493-0.490164c-120.106472-56.04955-197.941188-177.899736-198.285019-310.410726l-0.23536-88.49245 0.923022-0.715291c55.986105-44.134173 126.110209-68.548212 197.413162-68.735477 71.291696-0.183172 141.513014 23.863501 197.732433 67.705008l0.957815 0.711198 0.221034 88.496543C714.439642 579.649749 637.227096 701.894931 517.440919 758.546186z" p-id="12195" fill="#bfbfbf"></path><path d="M627.946732 570.694797l-91.270726 0 0-58.763358 53.863768 0c9.382695 0 17.020652-7.823176 17.020652-17.451464s-7.638981-17.463744-17.020652-17.463744l-53.863768 0 0-60.089563 68.895113 0c9.382695 0 16.996093-7.835456 16.996093-17.476023 0-9.628288-7.614421-17.451464-16.996093-17.451464l-176.868243 0c-9.382695 0-17.020652 7.823176-17.020652 17.451464 0 9.640568 7.638981 17.476023 17.020652 17.476023l73.92978 0 0 153.768129-33.968649 0L468.664006 484.876246c0-9.640568-7.614421-17.476023-16.996093-17.476023s-17.020652 7.835456-17.020652 17.476023l0 85.818551-32.200376 0c-9.382695 0-17.021675 7.835456-17.021675 17.46272 0 9.628288 7.638981 17.463744 17.021675 17.463744l225.499847 0c9.382695 0 17.020652-7.835456 17.020652-17.463744C644.967384 578.529229 637.328403 570.694797 627.946732 570.694797z" p-id="12196" fill="#bfbfbf"></path></svg>