<svg t="1561597614199" class="icon" viewBox="0 0 1024 1024" version="1.1" xmlns="http://www.w3.org/2000/svg" p-id="6077" width="20" height="20"><path d="M843.001 820.769c-0.024 0-0.050 0-0.050 0h-658.793c-14.14 0-25.599 11.459-25.599 25.624 0 14.14 11.484 25.6 25.599 25.6h658.793c0 0 0.024 0 0.050 0 14.14 0 25.6-11.459 25.6-25.6 0-14.166-11.459-25.624-25.6-25.624zM494.381 766.031c4.78 4.806 11.358 7.817 18.668 7.817v0 0c7.309 0 13.886-2.986 18.617-7.841l318.189-318.19c4.781-4.755 7.793-11.331 7.817-18.592 0-14.494-11.839-26.231-26.256-26.231-7.285-0.025-13.837 2.96-18.567 7.715l-273.569 273.544v-495.206c-0.026-0.025-0.026-0.025-0.026-0.050 0.026-14.494-11.71-26.257-26.18-26.257-14.494 0-26.231 11.763-26.231 26.257 0 0 0 0.025 0.025 0.050v495.182l-273.544-273.543c-4.73-4.755-11.332-7.715-18.567-7.69-14.494-0.025-26.231 11.737-26.282 26.181 0 7.285 2.986 13.913 7.766 18.618l318.14 318.241z" p-id="6078" fill="#8a8a8a"></path></svg>