<svg t="1561598092991" class="icon" viewBox="0 0 1024 1024" version="1.1" xmlns="http://www.w3.org/2000/svg" p-id="8083" width="200" height="200"><path d="M512 110.592C282.624 110.592 98.304 294.912 98.304 524.288 98.304 753.664 282.624 942.08 512 942.08c229.376 0 413.696-184.32 413.696-413.696C925.696 294.912 741.376 110.592 512 110.592zM512 901.12c-208.896 0-376.832-167.936-376.832-376.832 0-98.304 36.864-184.32 98.304-253.952l532.48 532.48C696.32 864.256 610.304 901.12 512 901.12zM790.528 778.24 258.048 245.76c65.536-61.44 155.648-98.304 253.952-98.304 208.896 0 376.832 167.936 376.832 376.832C888.832 622.592 851.968 712.704 790.528 778.24z" p-id="8084" fill="#8a8a8a"></path></svg>