<svg t="1561340567578" class="icon" viewBox="0 0 1024 1024" version="1.1" xmlns="http://www.w3.org/2000/svg" p-id="7011" width="20" height="20"><path d="M305.31863992 620.69474993c5.81820745 5.81655864 15.24275545 5.81655864 21.07456552-1e-8l185.60679456-185.60638235 185.60638236 185.60638235c5.83304667 5.81655864 15.25800687 5.81655864 21.07538992 1e-8 5.81697083-5.81655864 5.81738305-15.25718247 0-21.07374111l-194.23332276-194.23291055c-0.50783078-0.73660197-1.08656003-1.43981571-1.74195854-2.09645081-2.94723226-2.94640785-6.83386903-4.39405535-10.70607878-4.34830113-3.87262196-0.04575425-7.76008313 1.39983226-10.70772758 4.34830113-0.65663511 0.65663511-1.23371555 1.36067323-1.74278294 2.09768741l-194.23167397 194.23126175c-5.81697083 5.81655864-5.81738305 15.25718247 0.00041222 21.07374113z" p-id="7012" fill="#cdcdcd"></path></svg>