<svg t="1561340284449" class="icon" viewBox="0 0 1024 1024" version="1.1" xmlns="http://www.w3.org/2000/svg" p-id="6126" width="50" height="50"><path d="M767.969233 68.700095A511.923212 511.923212 0 1 0 955.333129 767.884817a509.670749 509.670749 0 0 0-183.422087-696.983452z m165.351198 686.386642a484.842474 484.842474 0 1 1 61.430785-182.961356 484.688897 484.688897 0 0 1-61.430785 182.961356z" p-id="6127" fill="#e6e6e6"></path><path d="M746.72442 105.660951a469.228816 469.228816 0 1 0 171.699045 640.979053 467.693046 467.693046 0 0 0-168.93466-639.340899z m210.298055 287.086537a459.041544 459.041544 0 1 1-77.351597-158.696196 459.092736 459.092736 0 0 1 77.351597 158.696196z" p-id="6128" fill="#e6e6e6"></path><path d="M776.467159 255.961606l15.613658 21.39839 12.746888-22.575814 25.903314-7.166925-18.889966-19.094735 0.358346-25.596161-24.213968 10.750387-25.596161-8.958656 3.839424 25.596161-16.227965 20.476928z m-178.302855-85.388792l26.620007-5.938309 22.882968 13.514773 2.815577-25.596161 20.93766-16.688697-24.777084-10.238464-9.880118-23.855622-18.122081 19.555467-27.029546 1.945308 13.514773 22.063891z m253.350798 216.031595l2.508423 26.517623 22.319852-13.00285 25.852122 7.013348-6.245463-26.005699 13.361196-22.166275-26.312853-3.173924-17.558966-20.476928-9.777733 24.06039-24.418738 9.214618 20.476929 17.86612zM412.284986 166.886967l23.59966-13.719542 25.954507 6.091886-5.119232-25.59616 14.99935-22.012699-26.824776-2.252462-16.739889-19.709043-11.415888 24.162775-25.237814 10.238464 19.709043 16.944659zM623.402118 854.911763l-23.241313 13.719542-25.596161-6.091886 5.119232 25.237814-14.743388 22.319852 26.364045 1.996501 16.586312 19.709044 11.211119-23.958007 24.981852-10.238464-19.555466-16.893466-1.075039-26.005699z m-353.227015-73.819327l-15.357697-21.39839-12.695695 22.627006-25.596161 7.218117 18.634005 19.299505-0.409539 25.596161 24.111584-10.80158 25.59616 8.805079-3.839424-25.59616 16.227966-20.476929-26.415238-5.119232z m-107.503875-177.739739l-23.138929 11.46708-25.084237-8.651502 4.607308 26.159276-14.948157 21.040044 25.852122 5.119232 15.920812 21.756736 11.415887-23.343698 24.777084-7.73004-18.73639-19.504275z m287.496076 250.228066l-26.261661 5.989501-22.678198-13.46358-2.764386 25.596161-20.937659 16.688696 24.521122 9.880118 9.777733 23.80443 17.968505-19.504275 26.927161-1.945308-13.412388-22.166275 6.859771-24.93066z m-20.476929-647.480478a315.959006 315.959006 0 0 1 398.839374 308.843273l8.395541 4.812079a324.405739 324.405739 0 0 0-496.565515-283.810229l8.497925 4.658501a316.010198 316.010198 0 0 1 80.832675-34.503624z" p-id="6129" fill="#e6e6e6"></path><path d="M595.809457 815.442484A315.959006 315.959006 0 0 1 196.970083 506.803979l-8.446733-5.119232a324.405739 324.405739 0 0 0 496.565515 283.810229l-8.39554-4.812078a319.542469 319.542469 0 0 1-80.883868 34.759586z m147.485078-480.593511a291.796231 291.796231 0 0 1 59.229515 165.248812l8.651502 5.119232A298.553617 298.553617 0 0 0 366.211897 250.842374l8.651502 5.119232a290.311653 290.311653 0 0 1 368.584713 79.143328z" p-id="6130" fill="#e6e6e6"></path><path d="M282.205298 686.744988a291.437884 291.437884 0 0 1-59.280708-165.300005l-8.651502-5.119232a298.502425 298.502425 0 0 0 445.014848 254.323452l-8.651503-5.119232a290.260461 290.260461 0 0 1-368.584712-79.143329zM305.651381 519.141329a41.516972 41.516972 0 0 1-20.476928-6.040694L160.930689 442.250462c-19.145928-10.955157-23.548468-27.695046-12.439734-47.096935L220.211397 269.578763l23.958006 13.719542L224.818706 317.392391l116.564915 66.550018 29.486777-51.60186-153.576963-87.794831L230.449861 221.048443 408.138408 322.511623l-56.311553 98.391642-140.420537-80.26956-37.677549 65.93571a11.518272 11.518272 0 0 0-1.9965 8.088386 11.774234 11.774234 0 0 0 6.143078 6.194271l117.025647 67.061941a19.299505 19.299505 0 0 0 9.214617 2.917962 7.26931 7.26931 0 0 0 1.484578 0c2.559616-0.972654 11.159926-6.552617 31.227316-37.72874l4.658501-7.26931 19.145928 20.937659-2.917962 4.300155c-24.93066 36.756087-36.346548 44.33255-42.796781 46.840974h-0.6655a32.507124 32.507124 0 0 1-8.60031 1.228616zM538.781212 660.022597a332.750087 332.750087 0 0 0-15.357697-62.557017l-0.716692-1.9965a95.473679 95.473679 0 0 1-10.238464 6.962155 93.477178 93.477178 0 0 1-43.411089 9.726541 140.062191 140.062191 0 0 1-20.476928-1.586962l-5.426386-0.767884-1.228616-23.087737-25.954507 7.115732-1.279808-7.166925a461.805929 461.805929 0 0 0-25.289007-85.491176l-2.713193-6.962156 25.903315-6.706194 2.150077 5.477579c3.788232 9.521772 7.115733 18.378043 10.238465 26.46643a367.919212 367.919212 0 0 0 40.544318-21.961506l-62.249862-35.834625 13.156426-23.036544 51.192321 29.179623v-0.563116a279.919612 279.919612 0 0 0-2.150077-48.837474l-0.563116-4.504924c-12.030195 5.426386-24.162776 10.238464-36.244163 14.231465l-7.730041 2.610808-3.327501-27.336699 5.119233-1.740539a417.422187 417.422187 0 0 0 83.699445-39.315703l3.378693-2.047693 15.767235 9.009849 0.563115 3.020347c4.709694 25.084237 8.549118 51.550667 11.46708 78.887367l5.119232-8.549118 33.223817 18.992351c4.300155-4.760886 8.446733-9.777733 12.337349-14.99935l-46.892166-26.773584 13.310003-23.292506 117.332801 67.061941-13.310004 23.241313-46.892166-26.773583c-3.941809 5.119232-7.986002 10.238464-12.234965 15.101734l41.261011 23.548468-66.550018 116.206569-21.347197-11.620657a335.975204 335.975204 0 0 1 12.388541 50.885167l0.921462 5.784733-26.671199 7.678848z m9.828925-70.082288c1.075039 3.071539 2.150077 6.091886 3.122732 9.061041l51.60186-90.252062-51.192322-29.077239-53.59836 94.245063-23.548468-13.412388 54.775784-95.832025-17.303004 5.477578-0.460731-8.344348c-2.047693-26.364045-4.607309-49.093436-7.678849-67.727441a482.948358 482.948358 0 0 1-33.019047 17.149428l18.480428-0.972654 0.767885 6.091886a309.150427 309.150427 0 0 1 3.020347 50.373244v5.73354l-15.357696 1.689347 28.6677 16.535119-9.828926 17.20062-1.177424 0.87027a339.353897 339.353897 0 0 1-63.273708 35.834624c3.429886 11.979003 6.347848 23.958006 8.651502 35.834625l0.409538 2.047693 7.474079 1.177423a119.994801 119.994801 0 0 0 18.531621 1.53577 68.956057 68.956057 0 0 0 33.121431-7.474079c12.900465-7.576464 25.596161-21.347198 37.114433-40.953857l25.13543-44.025396 23.292506 13.310004-25.237814 44.12778a166.477428 166.477428 0 0 1-29.691547 37.728741l15.357697-3.685847zM770.784811 794.351247a320.0032 320.0032 0 0 1-10.238464-65.526171 228.522522 228.522522 0 0 1-68.239364 21.551967l-6.347848 0.921462-4.607309-25.59616-9.214618 16.176773-23.753237-13.565965 21.654352-37.882318a1362.022897 1362.022897 0 0 1-74.484827-26.46643l-5.631156-2.201269 7.576464-26.620007 23.087737 9.368194 76.788482-133.970304-18.531621-10.545618 13.207619-23.087737 118.459031 67.727441-6.859771 11.927811 85.951907 49.093436-9.93131 17.405389-0.255961 0.307154a367.253712 367.253712 0 0 1-92.709294 91.019947 280.124381 280.124381 0 0 0 10.852772 71.669249l1.740539 6.040694-26.210468 9.368195z m-88.818677-70.287057l5.73354-0.870269a213.625556 213.625556 0 0 0 72.590711-25.13543 326.146278 326.146278 0 0 1 28.770085-118.970954l-8.651503-5.119232 6.962156-12.183773-9.624156-5.52877-67.317903 117.742338 25.903315 7.013348-13.873119 24.367545-5.119232-1.689346c-3.122732-0.972654-7.320502-2.20127-12.542119-3.634655-3.122732-0.767885-5.784732-1.484577-7.986002-2.098885z m129.772534-132.024996a301.26681 301.26681 0 0 0-24.111583 88.204369 338.483627 338.483627 0 0 0 64.655901-65.06544z m-165.351197 61.891516c12.234965 4.248963 24.674699 8.446733 37.06324 12.490927l13.719542-24.060391-33.326201-19.043544z m63.683247-34.145278l15.357697-26.568814-33.326202-19.043544-15.357696 26.568815z m28.258161-49.40059l15.664851-27.490276-33.326201-19.043544-15.664851 27.490277z" p-id="6131" fill="#e6e6e6"></path></svg>