<svg t="1561339152682" class="icon" viewBox="0 0 1024 1024" version="1.1" xmlns="http://www.w3.org/2000/svg" p-id="4469" width="200" height="200"><path d="M512 1024C229.233778 1024 0 794.766222 0 512S229.233778 0 512 0s512 229.233778 512 512-229.233778 512-512 512z m0-938.666667C276.366222 85.333333 85.333333 276.366222 85.333333 512c0 235.633778 191.032889 426.666667 426.666667 426.666667 235.633778 0 426.666667-191.032889 426.666667-426.666667A426.666667 426.666667 0 0 0 512 85.333333z m213.333333 462.933334h-426.666666a42.666667 42.666667 0 0 1 0-85.333334h426.666666a42.666667 42.666667 0 0 1 0 85.333334z" fill="#8a8a8a" p-id="4470"></path></svg>