<svg t="1561728649995" class="icon" viewBox="0 0 1024 1024" version="1.1" xmlns="http://www.w3.org/2000/svg" p-id="23120" width="200" height="200"><path d="M21.7 147.6h977.6v729.6H21.7z" fill="#429BCF" p-id="23121"></path><path d="M74.6 209.6h871.9v605.6H74.6z" fill="#FFFFFF" p-id="23122"></path><path d="M453.2 393.3L280 693.4h346.5z" fill="#429BCF" p-id="23123"></path><path d="M457.8 401.3l7.7 92.9-12.3 54.3 6 62.9 121.5 10.3z" fill="#1A7FC0" p-id="23124"></path><path d="M74.6 608.6h871.9v206.5H74.6z" fill="#83C6EF" p-id="23125"></path><path d="M304 341L130.8 641.1h346.5z" fill="#83C6EF" p-id="23126"></path><path d="M798.1 341m-51.2 0a51.2 51.2 0 1 0 102.4 0 51.2 51.2 0 1 0-102.4 0Z" fill="#FFD96B" p-id="23127"></path><path d="M830.8 301.9c0.3 2.3 0.9 4.6 0.9 7 0 33.1-31.7 60.2-72.8 64.7 9.4 11.3 23.4 18.6 39.2 18.6 28.3 0 51.2-22.9 51.2-51.2 0-15.8-7.2-29.7-18.5-39.1z" fill="#FDC223" p-id="23128"></path><path d="M801 276.1h-5.8c-0.1 0-0.1 0-0.1-0.1v-16.2c0-0.1 0-0.1 0.1-0.1h5.8c0.1 0 0.1 0 0.1 0.1V276c0 0.1 0 0.1-0.1 0.1zM801 422.2h-5.8c-0.1 0-0.1 0-0.1-0.1v-16.2c0-0.1 0-0.1 0.1-0.1h5.8c0.1 0 0.1 0 0.1 0.1v16.2c0 0.1 0 0.1-0.1 0.1zM846 297.2l-4.1-4.1v-0.1l11.5-11.5h0.1l4.1 4.1v0.1l-11.5 11.5h-0.1zM742.7 400.5l-4.1-4.1v-0.1l11.5-11.5h0.1l4.1 4.1v0.1l-11.5 11.5h-0.1z" fill="#FFD96B" p-id="23129"></path><path d="M863 343.9v-5.8c0-0.1 0-0.1 0.1-0.1h16.2c0.1 0 0.1 0 0.1 0.1v5.8c0 0.1 0 0.1-0.1 0.1h-16.2c-0.1 0-0.1-0.1-0.1-0.1zM716.9 343.9v-5.8c0-0.1 0-0.1 0.1-0.1h16.2c0.1 0 0.1 0 0.1 0.1v5.8c0 0.1 0 0.1-0.1 0.1H717c-0.1 0-0.1-0.1-0.1-0.1z" fill="#FFD96B" p-id="23130"></path><path d="M841.9 388.9l4.1-4.1h0.1l11.5 11.5v0.1l-4.1 4.1h-0.1L841.9 389v-0.1zM738.6 285.5l4.1-4.1h0.1l11.5 11.5v0.1l-4.1 4.1h-0.1l-11.5-11.5v-0.1z" fill="#FFD96B" p-id="23131"></path></svg>