<svg t="1561729276805" class="icon" viewBox="0 0 1024 1024" version="1.1" xmlns="http://www.w3.org/2000/svg" p-id="25817" width="20" height="20"><path d="M539.498 1006.359h-308.538l180.252-138.854c-185.167-50.353-315.338-217.853-315.338-413.941 0-236.667 192.566-429.22 429.233-429.22 236.667 0 429.206 192.553 429.206 429.22 0 118.388-49.712 232.735-136.369 313.713l-278.446 239.084zM351.246 965.399h173.084l266.281-228.639c78.93-73.756 122.743-174.53 122.743-283.198 0-214.084-174.162-388.26-388.246-388.26-214.098 0-388.273 174.162-388.273 388.26 0 191.147 136.71 352.242 325.072 383.085l46.586 7.632-157.246 121.119zM525.121 712.322c-142.677 0-258.758-116.067-258.758-258.758 0-142.677 116.081-258.745 258.758-258.745 142.65 0 258.717 116.067 258.717 258.745 0 142.691-116.067 258.758-258.717 258.758zM525.121 235.779c-120.095 0-217.798 97.703-217.798 217.785 0 120.095 97.703 217.798 217.798 217.798 120.081 0 217.757-97.703 217.757-217.798 0-120.081-97.676-217.785-217.757-217.785z" p-id="25818" fill="#8a8a8a"></path><path d="M408.289 599.299l-26.419-29.232 12.097-14.336c25.819-27.975 40.032-64.307 40.032-102.304 0-38.025-14.213-74.342-40.018-102.291l-13.585-14.705 13.94-13.489 13.244-16.002 15.878 14.65c27.989 25.805 64.321 40.018 102.332 40.018s74.356-14.213 102.318-40.018l15.892-14.65 13.298 16.070 13.366 13.476-13.039 14.65c-25.805 27.935-40.004 64.267-40.004 102.291 0 38.011 14.199 74.342 40.004 102.304l12.684 13.749-26.419 29.232-15.77-13.435c-27.949-25.805-64.293-40.004-102.318-40.004s-74.342 14.213-102.291 40.004l-15.223 14.022zM525.79 504.3c20.849 0 41.315 3.359 60.689 9.817-6.471-19.374-9.83-39.827-9.83-60.689 0-20.849 3.359-41.301 9.817-60.661-38.735 12.889-82.575 12.902-121.338 0 6.458 19.36 9.817 39.813 9.817 60.661 0 20.849-3.359 41.301-9.83 60.689 19.388-6.458 39.827-9.817 60.675-9.817z" p-id="25819" fill="#8a8a8a"></path></svg>