<svg t="1561536978493" class="icon" viewBox="0 0 1024 1024" version="1.1" xmlns="http://www.w3.org/2000/svg" p-id="4201" width="16" height="16"><path d="M560.872727 890.88a23.272727 23.272727 0 0 1-16.756363-7.447273l-393.774546-418.909091a23.272727 23.272727 0 0 1-6.050909-15.825454V156.392727a23.272727 23.272727 0 0 1 23.272727-23.272727h311.854546a23.272727 23.272727 0 0 1 17.221818 7.447273l377.018182 417.978182a23.272727 23.272727 0 0 1 0 32.116363L577.629091 884.363636a23.272727 23.272727 0 0 1-16.756364 6.516364z m-372.363636-453.818182l372.363636 397.032727 262.981818-262.981818-355.141818-391.447272h-279.272727z" fill="#1B37A8" p-id="4202"></path><path d="M380.741818 475.229091a105.192727 105.192727 0 1 1 105.192727-105.192727 105.658182 105.658182 0 0 1-105.192727 105.192727z m0-164.305455a58.647273 58.647273 0 1 0 58.647273 58.647273 58.647273 58.647273 0 0 0-58.647273-58.647273z" fill="#FFB718" p-id="4203"></path><path d="M470.667636 772.002909l296.541091-296.494545 32.907637 32.861091-296.494546 296.54109z" fill="#1B37A8" p-id="4204"></path></svg>