<svg t="1561538587084" class="icon" viewBox="0 0 1024 1024" version="1.1" xmlns="http://www.w3.org/2000/svg" p-id="6053" width="15" height="15"><path d="M804.723493 344.881497l44.70686-55.351351c44.706861-55.351351 38.320166-136.24948-12.773388-183.08524l-89.413722-76.640332c-21.288981-19.160083-51.093555-29.804574-80.898129-29.804574-38.320166 0-74.511435 17.031185-97.929314 46.835759l-44.70686 55.351351 281.014553 242.694387zM583.318087 97.929314l17.031185-21.288981c17.031185-19.160083 42.577963-31.933472 68.12474-31.933472 19.160083 0 38.320166 6.386694 53.222454 19.160083L808.981289 142.636175c34.06237 29.804574 38.320166 85.155925 8.515592 121.347193l-17.031185 21.288981-217.147609-187.343035zM1000.582121 981.422037H204.37422l125.60499-34.06237c10.644491-2.128898 19.160083-8.515593 25.546778-17.031185l395.975052-483.259875c19.160083-23.417879 14.902287-55.351351-6.386695-74.511434L510.935551 168.182952c-10.644491-8.515593-25.546778-14.902287-38.320166-12.773389-14.902287 2.128898-27.675676 8.515593-36.191269 19.160084L40.449064 659.95842c-6.386694 8.515593-10.644491 19.160083-12.773388 29.804574L0 964.390852v42.577963c0 10.644491 6.386694 17.031185 17.031185 17.031185H1000.582121c12.773389 0 21.288981-8.515593 21.288981-21.288981s-8.515593-21.288981-21.288981-21.288982zM70.253638 694.02079c0-2.128898 0-4.257796 2.128898-6.386694L470.486486 202.245322c2.128898-2.128898 4.257796-4.257796 6.386695-4.257796 2.128898 0 4.257796 0 6.386694 2.128898l232.049896 202.245322c4.257796 4.257796 4.257796 10.644491 2.128898 14.902287L323.592516 900.523909l-4.257797 4.257796L51.093555 981.422037c-2.128898 0-4.257796-2.128898-4.257796-2.128898-4.257796-4.257796-4.257796-6.386694-4.257796-10.64449l27.675675-274.627859z" fill="#bfbfbf" p-id="6054"></path></svg>