<svg t="1561726715701" class="icon" viewBox="0 0 1024 1024" version="1.1" xmlns="http://www.w3.org/2000/svg" p-id="17525" width="40" height="40"><path d="M920.271032 372.307448l-85.877903 0c-11.879562 0-21.537526-9.625218-21.537526-21.441335 0-11.879562 9.657964-21.537526 21.537526-21.537526l85.877903 0c11.879562 0 21.521153 9.657964 21.521153 21.537526C941.793208 362.682229 932.151617 372.307448 920.271032 372.307448L920.271032 372.307448zM702.723298 372.307448 146.732387 372.307448c-11.879562 0-21.537526-9.625218-21.537526-21.441335 0-11.879562 9.657964-21.537526 21.537526-21.537526l555.99091 0c11.879562 0 21.457708 9.657964 21.457708 21.537526C724.179982 362.682229 714.602859 372.307448 702.723298 372.307448L702.723298 372.307448zM297.110303 673.15947c0 11.879562-9.641591 21.537526-21.441335 21.537526l-171.915441 0c-11.879562 0-21.537526-9.657964-21.537526-21.537526s9.657964-21.441335 21.537526-21.441335l171.915441 0C287.468712 651.718135 297.110303 661.279908 297.110303 673.15947L297.110303 673.15947zM404.605549 651.718135l472.767464 0c11.879562 0 21.441335 9.561773 21.441335 21.441335s-9.561773 21.537526-21.441335 21.537526l-472.767464 0c-11.879562 0-21.537526-9.657964-21.537526-21.537526S392.724964 651.718135 404.605549 651.718135L404.605549 651.718135zM425.374572 184.323029l-171.915441 666.12424c-2.51017 9.705036-11.239995 16.165168-20.770046 16.165168-1.807159 0-3.613294-0.272199-5.420453-0.671289-11.495822-2.990101-18.419512-14.693654-15.445784-26.222221l171.915441-666.140613c2.990101-11.512195 14.741749-18.451234 26.190499-15.477506C421.442006 161.074535 428.364673 172.795485 425.374572 184.323029L425.374572 184.323029zM769.205455 184.323029l-171.915441 666.12424c-2.51017 9.705036-11.239995 16.165168-20.770046 16.165168-1.807159 0-3.613294-0.272199-5.420453-0.671289-11.495822-2.990101-18.419512-14.693654-15.445784-26.222221l171.915441-666.140613c2.990101-11.512195 14.741749-18.451234 26.190499-15.477506C765.272889 161.074535 772.195555 172.795485 769.205455 184.323029L769.205455 184.323029z" p-id="17526" fill="#bfbfbf"></path></svg>